<svg id="svg" version="1.1" width="400" height="400" viewBox="0 0 400 400" xmlns="http://www.w3.org/2000/svg" xmlns:xlink="http://www.w3.org/1999/xlink" ><g id="svgg"><path id="path0" d="" stroke="none" fill="#040404" fill-rule="evenodd"></path><path id="path1" d="" stroke="none" fill="#080404" fill-rule="evenodd"></path><path id="path2" d="" stroke="none" fill="#080404" fill-rule="evenodd"></path><path id="path3" d="" stroke="none" fill="#080404" fill-rule="evenodd"></path><path id="path4" d="M197.532 0.414 C 197.165 0.628,194.195 0.977,190.932 1.188 C 184.966 1.576,180.932 2.055,177.600 2.773 C 176.610 2.987,174.720 3.367,173.400 3.619 C 172.080 3.870,170.587 4.239,170.081 4.438 C 169.576 4.637,168.729 4.800,168.200 4.800 C 167.671 4.800,166.824 4.961,166.319 5.158 C 165.813 5.355,164.590 5.742,163.600 6.018 C 161.224 6.680,154.440 8.809,153.300 9.251 C 152.805 9.443,151.995 9.756,151.500 9.946 C 149.999 10.524,148.240 11.273,147.505 11.647 C 147.123 11.841,146.538 12.000,146.205 12.000 C 145.872 12.000,145.600 12.180,145.600 12.400 C 145.600 12.620,145.345 12.800,145.033 12.800 C 144.209 12.800,137.243 16.558,129.707 21.069 C 128.116 22.021,126.646 22.800,126.440 22.800 C 126.235 22.800,126.007 22.947,125.933 23.126 C 125.860 23.306,124.789 24.161,123.554 25.026 C 121.421 26.521,117.398 29.685,113.000 33.327 C 108.539 37.022,98.196 47.891,95.614 51.600 C 95.077 52.370,94.531 53.090,94.400 53.200 C 94.269 53.310,93.725 54.030,93.192 54.800 C 92.658 55.570,92.079 56.380,91.904 56.600 C 88.469 60.925,84.391 67.701,80.949 74.800 C 76.802 83.353,76.000 85.092,76.000 85.530 C 76.000 85.789,75.820 86.000,75.600 86.000 C 75.380 86.000,75.200 86.283,75.200 86.629 C 75.200 86.976,74.733 88.641,74.162 90.329 C 65.824 114.990,65.017 147.746,72.176 171.000 C 72.514 172.100,72.793 173.405,72.796 173.900 C 72.798 174.395,72.980 174.800,73.200 174.800 C 73.420 174.800,73.600 175.340,73.600 176.000 C 73.600 176.660,73.780 177.200,74.000 177.200 C 74.220 177.200,74.400 177.639,74.400 178.176 C 74.400 178.713,74.580 179.264,74.800 179.400 C 75.020 179.536,75.200 179.980,75.200 180.386 C 75.200 180.792,75.546 181.816,75.968 182.662 C 76.391 183.508,78.364 187.539,80.352 191.621 C 83.885 198.876,86.902 204.241,89.638 208.141 C 90.387 209.208,91.180 210.369,91.400 210.719 C 91.620 211.070,92.079 211.677,92.421 212.068 C 92.762 212.460,93.409 213.460,93.860 214.290 C 94.310 215.121,95.133 216.610,95.690 217.600 C 96.246 218.590,97.219 220.390,97.851 221.600 C 98.483 222.810,99.090 223.890,99.200 224.000 C 99.310 224.110,99.783 224.920,100.250 225.800 C 100.718 226.680,102.125 229.079,103.376 231.132 C 105.813 235.128,106.835 236.925,108.651 240.400 C 109.283 241.610,109.890 242.690,110.000 242.800 C 110.110 242.910,110.577 243.720,111.038 244.600 C 112.324 247.053,113.621 249.296,114.393 250.400 C 114.944 251.190,118.927 258.077,121.653 262.955 C 121.885 263.370,122.446 264.360,122.899 265.155 C 123.353 265.950,124.204 267.500,124.792 268.600 C 125.380 269.700,126.634 271.860,127.580 273.400 C 128.526 274.940,129.613 276.740,129.995 277.400 C 130.378 278.060,131.319 279.680,132.086 281.000 C 132.854 282.320,134.114 284.570,134.886 286.000 C 136.391 288.786,138.269 292.059,140.392 295.600 C 141.118 296.810,142.047 298.385,142.456 299.100 C 142.865 299.815,143.560 301.030,144.000 301.800 C 144.440 302.570,145.188 303.875,145.662 304.700 C 146.588 306.312,148.114 309.108,149.646 312.000 C 150.171 312.990,150.735 313.860,150.900 313.933 C 151.065 314.007,151.200 314.226,151.200 314.421 C 151.200 314.616,151.985 315.996,152.944 317.488 C 153.903 318.979,155.298 321.370,156.044 322.800 C 156.790 324.230,157.490 325.490,157.600 325.600 C 157.710 325.710,158.174 326.520,158.630 327.400 C 159.720 329.501,160.551 330.952,160.805 331.200 C 160.918 331.310,161.451 332.300,161.990 333.400 C 162.528 334.500,163.445 336.120,164.027 337.000 C 164.609 337.880,165.921 339.982,166.943 341.672 L 168.800 344.744 168.800 368.352 C 168.800 383.472,168.952 392.672,169.224 393.938 C 169.683 396.077,171.931 398.800,173.238 398.800 C 173.626 398.800,174.213 399.070,174.543 399.400 C 175.449 400.306,224.551 400.306,225.457 399.400 C 225.787 399.070,226.390 398.800,226.798 398.800 C 227.758 398.800,229.963 396.586,230.657 394.925 C 231.094 393.879,231.200 388.887,231.200 369.348 L 231.200 345.070 232.265 343.235 C 232.850 342.226,234.040 340.346,234.908 339.058 C 235.777 337.770,236.976 335.790,237.573 334.658 C 238.950 332.050,239.745 330.655,240.000 330.400 C 240.110 330.290,240.425 329.795,240.700 329.300 C 240.975 328.805,241.425 327.995,241.700 327.500 C 241.975 327.005,242.290 326.510,242.400 326.400 C 242.510 326.290,242.977 325.480,243.438 324.600 C 244.890 321.830,249.725 313.823,250.686 312.600 C 250.859 312.379,251.419 311.389,251.932 310.400 C 253.419 307.528,254.584 305.416,254.800 305.200 C 254.910 305.090,255.242 304.570,255.538 304.045 C 257.034 301.387,257.659 300.330,259.585 297.200 C 260.735 295.330,261.839 293.740,262.038 293.667 C 262.237 293.593,262.400 293.297,262.400 293.008 C 262.400 292.718,263.093 291.338,263.941 289.941 C 264.788 288.543,266.167 286.140,267.004 284.600 C 267.841 283.060,269.606 280.090,270.925 278.000 C 272.245 275.910,273.522 273.796,273.762 273.303 C 274.003 272.810,274.335 272.405,274.500 272.403 C 274.665 272.401,274.800 271.496,274.800 270.391 C 274.800 266.604,271.793 263.600,268.000 263.600 C 264.916 263.600,263.380 264.719,261.245 268.520 C 260.822 269.274,260.233 270.320,259.938 270.845 C 259.642 271.370,259.310 271.890,259.200 272.000 C 258.804 272.396,257.546 274.615,257.329 275.300 C 257.207 275.685,256.948 276.000,256.753 276.000 C 256.559 276.000,256.400 276.231,256.400 276.513 C 256.400 277.014,251.393 285.596,250.867 285.997 C 250.568 286.224,249.865 287.420,248.630 289.800 C 248.174 290.680,247.710 291.490,247.600 291.600 C 247.400 291.800,245.869 294.610,245.040 296.297 C 244.798 296.790,244.465 297.195,244.300 297.197 C 244.135 297.199,244.000 297.393,244.000 297.628 C 244.000 297.863,243.460 298.841,242.800 299.800 C 242.140 300.759,241.600 301.629,241.600 301.732 C 241.600 301.835,240.882 303.063,240.004 304.460 C 239.126 305.857,237.951 307.810,237.394 308.800 C 236.837 309.790,236.056 311.140,235.660 311.800 C 235.264 312.460,234.395 313.990,233.729 315.200 C 231.781 318.737,229.925 321.806,226.832 326.600 C 226.264 327.480,225.665 328.260,225.500 328.333 C 225.335 328.407,225.196 328.767,225.191 329.133 C 225.186 329.500,224.830 330.250,224.400 330.800 C 223.970 331.350,223.614 331.944,223.609 332.119 C 223.604 332.295,222.970 333.424,222.199 334.629 L 220.798 336.819 213.899 336.709 L 207.000 336.600 207.000 301.800 L 207.000 267.000 211.400 266.508 C 217.017 265.880,221.712 265.241,224.000 264.795 C 231.813 263.270,236.554 262.165,238.600 261.393 C 239.920 260.895,241.450 260.366,242.000 260.218 C 242.976 259.956,243.445 259.783,245.700 258.854 C 246.305 258.604,247.250 258.220,247.800 258.000 C 248.350 257.780,249.295 257.396,249.900 257.146 C 250.505 256.897,251.360 256.556,251.800 256.388 C 256.858 254.463,264.953 250.238,270.737 246.503 C 273.892 244.467,276.622 242.800,276.804 242.800 C 276.985 242.800,277.193 242.645,277.267 242.455 C 277.340 242.265,279.020 240.896,281.000 239.413 C 290.699 232.149,303.111 219.045,309.997 208.800 C 310.958 207.370,311.892 206.140,312.072 206.067 C 312.253 205.993,312.400 205.774,312.400 205.579 C 312.400 205.384,313.333 203.645,314.473 201.715 C 315.613 199.785,318.229 194.695,320.288 190.403 C 322.346 186.111,324.203 182.287,324.415 181.905 C 324.627 181.523,324.800 180.848,324.800 180.405 C 324.800 179.962,324.980 179.600,325.200 179.600 C 325.420 179.600,325.600 179.060,325.600 178.400 C 325.600 177.740,325.780 177.200,326.000 177.200 C 326.220 177.200,326.400 176.660,326.400 176.000 C 326.400 175.340,326.560 174.800,326.756 174.800 C 326.952 174.800,327.209 174.215,327.328 173.500 C 327.684 171.348,328.041 169.845,328.398 169.000 C 328.583 168.560,328.858 167.570,329.009 166.800 C 329.159 166.030,329.422 164.770,329.593 164.000 C 330.533 159.763,331.174 156.188,331.601 152.800 C 331.864 150.710,332.241 147.920,332.437 146.600 C 332.906 143.444,332.903 124.701,332.432 121.277 C 332.230 119.804,331.857 116.980,331.604 115.000 C 331.351 113.020,330.697 109.240,330.152 106.600 C 329.606 103.960,329.064 101.260,328.947 100.600 C 328.831 99.940,328.595 99.040,328.423 98.600 C 327.713 96.779,327.200 94.891,327.200 94.095 C 327.200 93.629,327.020 93.136,326.800 93.000 C 326.580 92.864,326.400 92.324,326.400 91.800 C 326.400 91.276,326.220 90.736,326.000 90.600 C 325.780 90.464,325.600 89.924,325.600 89.400 C 325.600 88.876,325.420 88.336,325.200 88.200 C 324.980 88.064,324.800 87.513,324.800 86.976 C 324.800 86.439,324.620 86.000,324.400 86.000 C 324.180 86.000,324.000 85.777,324.000 85.504 C 324.000 85.230,323.348 83.655,322.552 82.004 C 321.756 80.352,320.277 77.290,319.266 75.200 C 315.753 67.935,311.460 60.757,308.256 56.791 C 307.985 56.456,307.154 55.286,306.408 54.191 C 305.663 53.096,304.940 52.110,304.803 52.000 C 304.666 51.890,304.285 51.406,303.956 50.924 C 301.085 46.716,289.546 35.159,283.800 30.736 C 282.480 29.719,280.950 28.488,280.400 27.999 C 279.850 27.510,278.770 26.635,278.000 26.055 C 277.230 25.475,276.362 24.775,276.071 24.500 C 275.781 24.225,275.389 24.000,275.200 24.000 C 275.011 24.000,274.612 23.775,274.313 23.500 C 274.014 23.225,273.365 22.769,272.870 22.488 C 272.376 22.206,269.436 20.524,266.337 18.750 C 259.242 14.688,254.071 12.000,253.354 12.000 C 253.049 12.000,252.800 11.820,252.800 11.600 C 252.800 11.380,252.350 11.200,251.800 11.200 C 251.250 11.200,250.800 11.020,250.800 10.800 C 250.800 10.580,250.438 10.400,249.995 10.400 C 249.552 10.400,248.877 10.241,248.495 10.047 C 247.321 9.450,245.881 8.914,244.000 8.376 C 243.010 8.093,242.029 7.712,241.820 7.530 C 241.611 7.349,241.037 7.200,240.544 7.200 C 240.051 7.200,239.548 7.040,239.427 6.844 C 239.306 6.649,238.621 6.395,237.904 6.281 C 237.187 6.168,235.880 5.866,235.000 5.611 C 232.785 4.971,227.952 3.859,224.400 3.173 C 218.457 2.026,214.495 1.511,209.097 1.183 C 205.851 0.986,202.848 0.640,202.424 0.413 C 201.457 -0.105,198.420 -0.104,197.532 0.414 M206.716 15.157 C 212.220 17.200,218.447 22.151,222.619 27.800 C 223.268 28.679,224.115 29.748,224.500 30.175 C 224.885 30.602,225.200 31.172,225.200 31.442 C 225.200 31.712,225.345 31.993,225.523 32.067 C 226.612 32.516,231.575 41.263,234.109 47.200 C 234.438 47.970,235.088 49.453,235.553 50.496 C 236.019 51.538,236.400 52.633,236.400 52.929 C 236.400 53.225,236.506 53.572,236.635 53.702 C 236.964 54.030,240.881 65.099,241.625 67.800 C 241.806 68.460,242.157 69.720,242.404 70.600 C 243.366 74.028,244.341 78.288,244.647 80.400 C 244.758 81.170,245.008 82.160,245.202 82.600 C 245.396 83.040,245.650 84.120,245.766 85.000 C 245.882 85.880,246.171 87.770,246.408 89.200 C 246.646 90.630,246.929 92.790,247.038 94.000 C 247.147 95.210,247.401 96.560,247.603 97.000 C 247.806 97.440,248.069 99.150,248.188 100.800 C 248.308 102.450,248.582 105.690,248.796 108.000 C 250.778 129.294,249.799 158.184,246.399 178.800 C 246.163 180.230,245.870 182.210,245.746 183.200 C 245.623 184.190,245.360 185.171,245.161 185.380 C 244.963 185.589,244.800 186.433,244.800 187.256 C 244.800 188.079,244.620 188.864,244.400 189.000 C 244.180 189.136,244.000 189.946,244.000 190.800 C 244.000 191.654,243.820 192.464,243.600 192.600 C 243.380 192.736,243.200 193.456,243.200 194.200 C 243.200 194.944,243.020 195.664,242.800 195.800 C 242.580 195.936,242.400 196.566,242.400 197.200 C 242.400 197.834,242.220 198.464,242.000 198.600 C 241.780 198.736,241.600 199.207,241.600 199.647 C 241.600 200.478,239.847 205.894,238.120 210.400 C 237.572 211.830,236.763 213.990,236.323 215.200 C 235.076 218.626,234.968 218.890,234.057 220.738 C 233.586 221.694,233.200 222.656,233.200 222.876 C 233.200 223.096,232.871 223.754,232.470 224.338 C 232.068 224.922,231.493 226.030,231.193 226.800 C 230.892 227.570,230.545 228.290,230.423 228.400 C 230.300 228.510,229.762 229.410,229.227 230.400 C 228.328 232.063,227.311 233.628,226.121 235.176 C 225.857 235.519,224.630 237.223,223.394 238.962 C 219.777 244.050,212.804 250.400,210.835 250.400 C 210.596 250.400,210.400 250.553,210.400 250.740 C 210.400 251.665,203.004 254.000,200.073 254.000 C 196.931 254.000,190.144 251.860,189.667 250.719 C 189.593 250.543,189.358 250.400,189.145 250.400 C 187.622 250.400,179.357 243.144,177.717 240.367 C 177.338 239.725,176.886 239.200,176.714 239.200 C 176.541 239.200,176.400 238.930,176.400 238.600 C 176.400 238.270,176.250 238.000,176.068 238.000 C 175.885 238.000,175.480 237.505,175.168 236.900 C 174.856 236.295,174.501 235.710,174.378 235.600 C 172.216 233.662,166.335 222.328,163.793 215.200 C 162.969 212.890,161.979 210.280,161.593 209.400 C 161.207 208.520,160.660 206.990,160.378 206.000 C 160.096 205.010,159.715 204.029,159.533 203.820 C 159.350 203.611,159.200 203.037,159.200 202.544 C 159.200 202.051,159.020 201.536,158.800 201.400 C 158.580 201.264,158.400 200.634,158.400 200.000 C 158.400 199.366,158.220 198.736,158.000 198.600 C 157.780 198.464,157.600 197.834,157.600 197.200 C 157.600 196.566,157.439 195.948,157.242 195.826 C 157.045 195.705,156.786 194.929,156.665 194.103 C 156.248 191.248,155.944 189.797,155.598 189.000 C 155.406 188.560,155.156 187.570,155.041 186.800 C 154.927 186.030,154.648 184.410,154.420 183.200 C 148.764 153.057,148.752 115.509,154.389 85.100 C 154.603 83.945,154.885 82.280,155.014 81.400 C 155.144 80.520,155.406 79.440,155.598 79.000 C 155.789 78.560,156.037 77.660,156.148 77.000 C 156.342 75.850,156.602 74.766,157.630 70.800 C 157.887 69.810,158.179 67.704,158.280 66.120 L 158.462 63.241 156.641 61.420 C 152.697 57.476,145.600 60.155,145.600 65.589 C 145.600 66.229,145.440 66.852,145.244 66.973 C 145.049 67.094,144.792 67.779,144.673 68.496 C 144.555 69.213,144.255 70.610,144.007 71.600 C 143.582 73.297,143.418 74.012,142.379 78.700 C 142.147 79.745,141.806 81.500,141.622 82.600 C 141.437 83.700,141.074 85.680,140.816 87.000 C 139.574 93.346,138.935 97.626,138.010 105.800 C 136.650 117.807,136.641 149.677,137.993 162.200 C 138.715 168.885,139.605 174.821,140.784 180.800 C 141.022 182.010,141.316 183.810,141.438 184.800 C 141.559 185.790,141.814 186.960,142.004 187.400 C 142.195 187.840,142.442 188.830,142.553 189.600 C 142.769 191.094,143.302 193.594,143.960 196.200 C 144.182 197.080,144.476 198.340,144.612 199.000 C 144.749 199.660,145.013 200.560,145.200 201.000 C 145.558 201.844,145.915 203.341,146.273 205.504 C 146.391 206.221,146.649 206.906,146.844 207.027 C 147.040 207.148,147.200 207.676,147.200 208.200 C 147.200 208.724,147.380 209.264,147.600 209.400 C 147.820 209.536,148.000 210.089,148.000 210.629 C 148.000 211.169,148.180 211.968,148.400 212.405 C 148.620 212.842,148.980 213.558,149.200 213.995 C 149.420 214.432,149.600 215.141,149.600 215.571 C 149.600 216.001,149.780 216.464,150.000 216.600 C 150.220 216.736,150.400 217.106,150.400 217.422 C 150.400 217.738,151.030 219.361,151.800 221.028 C 152.570 222.695,153.200 224.128,153.200 224.214 C 153.200 224.482,159.741 237.790,159.976 238.000 C 160.099 238.110,160.425 238.605,160.700 239.100 C 160.975 239.595,161.425 240.405,161.700 240.900 C 161.975 241.395,162.299 241.890,162.419 242.000 C 162.540 242.110,163.075 242.830,163.608 243.600 C 164.142 244.370,164.898 245.349,165.289 245.775 C 166.611 247.217,166.027 249.240,164.516 248.455 C 164.122 248.250,162.450 247.671,160.800 247.169 C 159.150 246.667,157.629 246.108,157.420 245.928 C 157.211 245.748,156.626 245.600,156.120 245.600 C 155.614 245.600,155.200 245.420,155.200 245.200 C 155.200 244.980,154.928 244.800,154.595 244.800 C 154.262 244.800,153.677 244.634,153.295 244.431 C 152.913 244.228,150.530 243.079,148.000 241.878 C 145.470 240.678,141.902 238.774,140.071 237.648 C 138.239 236.521,136.658 235.600,136.555 235.600 C 136.333 235.600,129.088 230.771,128.800 230.431 C 128.690 230.302,127.970 229.718,127.200 229.135 C 126.430 228.552,125.168 227.473,124.396 226.738 C 123.624 226.002,122.518 225.093,121.938 224.718 C 119.599 223.206,112.380 215.864,106.669 209.190 C 104.887 207.108,97.042 195.529,95.428 192.600 C 94.822 191.500,94.163 190.429,93.963 190.220 C 93.763 190.011,93.600 189.516,93.600 189.120 C 93.600 188.724,93.420 188.400,93.200 188.400 C 92.980 188.400,92.800 188.040,92.800 187.600 C 92.800 187.160,92.620 186.800,92.400 186.800 C 92.180 186.800,92.000 186.547,92.000 186.238 C 92.000 185.929,91.614 184.894,91.143 183.938 C 90.672 182.982,90.132 181.795,89.943 181.300 C 89.308 179.634,88.709 178.205,88.353 177.505 C 88.159 177.123,88.000 176.536,88.000 176.200 C 88.000 175.864,87.841 175.277,87.647 174.895 C 86.407 172.458,84.716 167.439,83.639 163.000 C 83.158 161.020,82.611 158.770,82.422 158.000 C 82.234 157.230,81.872 155.070,81.618 153.200 C 81.365 151.330,80.967 148.563,80.734 147.052 C 80.190 143.521,80.230 122.667,80.784 120.803 C 81.013 120.034,81.200 118.653,81.200 117.733 C 81.200 116.053,81.285 115.555,82.830 108.200 C 83.690 104.104,86.262 95.702,86.864 95.020 C 87.049 94.811,87.200 94.237,87.200 93.744 C 87.200 93.251,87.380 92.736,87.600 92.600 C 87.820 92.464,88.000 91.913,88.000 91.376 C 88.000 90.839,88.180 90.400,88.400 90.400 C 88.620 90.400,88.800 89.961,88.800 89.424 C 88.800 88.887,88.980 88.336,89.200 88.200 C 89.420 88.064,89.600 87.603,89.600 87.176 C 89.600 86.749,89.780 86.400,90.000 86.400 C 90.220 86.400,90.400 86.128,90.400 85.795 C 90.400 85.462,90.562 84.877,90.759 84.495 C 90.957 84.113,91.897 82.180,92.849 80.200 C 93.802 78.220,94.675 76.510,94.790 76.400 C 94.906 76.290,95.441 75.390,95.979 74.400 C 98.531 69.710,104.183 61.571,108.192 56.814 C 110.598 53.959,121.702 42.912,122.844 42.238 C 123.492 41.855,124.422 41.146,124.911 40.662 C 125.400 40.178,126.430 39.345,127.200 38.811 C 127.970 38.276,128.690 37.739,128.800 37.617 C 129.631 36.697,137.722 31.200,138.246 31.200 C 138.373 31.200,138.954 30.867,139.538 30.461 C 141.322 29.219,145.215 27.200,145.825 27.200 C 146.141 27.200,146.400 27.020,146.400 26.800 C 146.400 26.580,146.749 26.400,147.176 26.400 C 147.603 26.400,148.064 26.220,148.200 26.000 C 148.336 25.780,148.797 25.600,149.224 25.600 C 149.651 25.600,150.000 25.420,150.000 25.200 C 150.000 24.980,150.226 24.800,150.502 24.800 C 150.778 24.800,152.443 24.105,154.202 23.255 C 155.961 22.406,158.570 21.313,160.000 20.827 C 161.430 20.340,162.870 19.836,163.200 19.706 C 174.315 15.329,199.957 12.648,206.716 15.157 M240.417 20.941 C 242.938 21.899,245.900 23.136,247.000 23.690 C 251.428 25.919,252.500 26.400,253.038 26.400 C 253.347 26.400,253.600 26.580,253.600 26.800 C 253.600 27.020,253.848 27.200,254.151 27.200 C 254.833 27.200,260.950 30.415,261.133 30.870 C 261.207 31.051,261.440 31.200,261.653 31.200 C 262.337 31.200,270.128 36.438,271.200 37.618 C 271.310 37.739,272.030 38.271,272.800 38.800 C 273.570 39.329,274.470 40.045,274.800 40.391 C 275.130 40.737,275.862 41.313,276.426 41.671 C 277.502 42.353,280.885 45.333,282.973 47.437 C 287.384 51.885,292.002 56.835,293.012 58.200 C 293.663 59.080,294.295 59.890,294.417 60.000 C 294.539 60.110,295.071 60.830,295.600 61.600 C 296.129 62.370,296.682 63.090,296.829 63.200 C 297.963 64.047,304.649 75.044,307.043 80.000 C 308.053 82.090,309.042 84.113,309.240 84.495 C 309.438 84.877,309.600 85.462,309.600 85.795 C 309.600 86.128,309.780 86.400,310.000 86.400 C 310.220 86.400,310.400 86.749,310.400 87.176 C 310.400 87.603,310.580 88.064,310.800 88.200 C 311.020 88.336,311.200 88.887,311.200 89.424 C 311.200 89.961,311.380 90.400,311.600 90.400 C 311.820 90.400,312.000 90.814,312.000 91.320 C 312.000 91.826,312.143 92.411,312.318 92.620 C 312.493 92.829,312.865 93.720,313.145 94.600 C 313.424 95.480,313.808 96.560,313.998 97.000 C 320.050 111.035,321.652 138.717,317.552 158.400 C 316.700 162.488,313.720 172.356,313.148 172.980 C 312.957 173.189,312.800 173.774,312.800 174.280 C 312.800 174.786,312.620 175.200,312.400 175.200 C 312.180 175.200,312.000 175.562,312.000 176.005 C 312.000 176.448,311.820 177.168,311.600 177.605 C 311.380 178.042,311.020 178.758,310.800 179.195 C 310.580 179.632,310.400 180.352,310.400 180.795 C 310.400 181.238,310.220 181.600,310.000 181.600 C 309.780 181.600,309.600 181.872,309.600 182.205 C 309.600 182.538,309.439 183.123,309.242 183.505 C 309.045 183.887,308.281 185.460,307.545 187.000 C 304.816 192.706,297.015 204.884,293.331 209.190 C 287.585 215.907,280.360 223.247,278.058 224.708 C 277.476 225.077,276.730 225.659,276.400 226.001 C 274.172 228.310,264.336 235.600,263.449 235.600 C 263.344 235.600,261.799 236.496,260.015 237.591 C 255.043 240.642,246.697 244.800,245.544 244.800 C 245.135 244.800,244.799 244.935,244.798 245.100 C 244.797 245.265,243.402 245.833,241.698 246.363 C 239.994 246.893,238.429 247.478,238.220 247.663 C 238.011 247.848,237.372 248.000,236.800 248.000 C 236.228 248.000,235.560 248.200,235.315 248.445 C 234.746 249.014,234.000 248.562,234.000 247.649 C 234.000 247.061,234.822 245.772,237.488 242.180 C 237.789 241.774,238.244 241.001,239.300 239.100 C 239.575 238.605,239.898 238.110,240.019 238.000 C 240.139 237.890,240.725 236.810,241.321 235.600 C 241.916 234.390,242.659 232.950,242.971 232.400 C 243.698 231.118,247.600 222.871,247.600 222.615 C 247.600 222.509,248.035 221.472,248.568 220.311 C 249.100 219.150,249.922 217.030,250.394 215.600 C 250.866 214.170,251.406 212.640,251.593 212.200 C 251.780 211.760,252.050 210.950,252.194 210.400 C 252.337 209.850,252.622 208.815,252.827 208.100 C 254.521 202.197,254.841 201.050,255.227 199.500 C 256.269 195.314,256.473 194.469,256.822 192.900 C 258.094 187.181,258.292 186.203,259.181 181.229 C 259.433 179.815,259.711 178.543,259.798 178.402 C 259.885 178.262,260.164 176.629,260.418 174.773 C 260.672 172.918,261.135 169.780,261.447 167.800 C 263.517 154.659,263.741 114.720,261.813 102.600 C 261.498 100.620,261.039 97.560,260.792 95.800 C 260.545 94.040,260.084 91.250,259.767 89.600 C 259.450 87.950,259.018 85.700,258.808 84.600 C 258.599 83.500,258.318 82.060,258.185 81.400 C 258.052 80.740,257.855 79.570,257.747 78.800 C 257.639 78.030,257.394 77.040,257.202 76.600 C 256.856 75.803,256.552 74.352,256.135 71.497 C 256.014 70.671,255.755 69.895,255.558 69.774 C 255.361 69.652,255.200 68.944,255.200 68.200 C 255.200 67.456,255.020 66.736,254.800 66.600 C 254.580 66.464,254.400 65.971,254.400 65.505 C 254.400 64.725,253.934 62.992,253.190 61.000 C 253.026 60.560,252.673 59.390,252.407 58.400 C 252.140 57.410,251.760 56.287,251.561 55.905 C 251.362 55.523,251.200 54.859,251.200 54.429 C 251.200 53.999,251.020 53.536,250.800 53.400 C 250.580 53.264,250.400 52.801,250.400 52.372 C 250.400 51.632,250.074 50.812,247.711 45.600 C 247.162 44.390,246.354 42.590,245.916 41.600 C 244.115 37.532,240.823 31.239,237.538 25.584 C 237.242 25.075,236.542 24.162,235.981 23.555 C 231.971 19.210,233.496 18.312,240.417 20.941 M132.843 248.797 C 136.002 250.838,144.228 254.817,150.300 257.241 C 152.732 258.212,153.267 258.428,154.100 258.782 C 154.595 258.992,156.530 259.700,158.400 260.357 C 160.270 261.013,162.340 261.740,163.000 261.971 C 164.170 262.381,171.191 263.922,175.600 264.736 C 178.203 265.216,182.539 265.803,188.600 266.497 L 193.000 267.000 193.000 301.800 L 193.000 336.600 186.048 336.600 L 179.096 336.600 178.048 334.600 C 177.472 333.500,176.910 332.510,176.800 332.400 C 176.600 332.200,175.069 329.390,174.240 327.703 C 173.998 327.210,173.665 326.805,173.500 326.803 C 173.335 326.801,173.200 326.607,173.200 326.372 C 173.200 326.137,172.686 325.192,172.057 324.272 C 171.428 323.352,169.205 319.540,167.117 315.800 C 162.843 308.145,162.250 307.102,160.400 304.000 C 159.031 301.704,158.174 300.221,156.757 297.700 C 156.294 296.875,155.766 296.016,155.584 295.791 C 155.402 295.566,154.701 294.351,154.026 293.091 C 150.372 286.264,148.986 283.802,148.010 282.400 C 147.628 281.850,146.864 280.590,146.314 279.600 C 145.763 278.610,144.945 277.150,144.494 276.355 C 144.044 275.560,143.433 274.480,143.138 273.955 C 142.842 273.430,142.510 272.910,142.400 272.800 C 142.290 272.690,141.772 271.790,141.248 270.800 C 139.925 268.299,137.642 264.036,136.857 262.600 C 136.495 261.940,136.095 261.310,135.967 261.200 C 135.489 260.790,130.740 252.647,128.902 249.085 C 127.522 246.411,128.987 246.304,132.843 248.797 M217.920 350.880 C 218.523 351.483,218.577 359.322,217.986 360.426 C 217.592 361.162,217.040 361.200,206.780 361.200 C 200.845 361.200,195.677 361.359,195.295 361.553 C 194.913 361.748,194.129 362.125,193.553 362.392 C 191.314 363.432,189.967 368.520,191.300 370.905 C 192.095 372.328,193.702 374.000,194.275 374.000 C 194.564 374.000,194.800 374.180,194.800 374.400 C 194.800 374.657,198.862 374.800,206.186 374.800 C 217.033 374.800,217.591 374.837,217.986 375.574 C 218.511 376.554,218.529 383.610,218.010 384.974 L 217.620 386.000 200.443 386.000 C 190.995 386.000,182.981 385.891,182.633 385.757 C 181.973 385.504,181.616 351.317,182.267 350.667 C 182.783 350.151,217.398 350.358,217.920 350.880 " stroke="none" fill="#000000" fill-rule="evenodd"></path></g></svg>